<svg xmlns="http://www.w3.org/2000/svg" viewBox="0 0 1088.78 204.6"><defs><style>.cls-1{fill:#e58f31;}</style></defs><g id="Layer_2" data-name="Layer 2"><g id="Layer_1-2" data-name="Layer 1"><g id="Layer_2-2" data-name="Layer 2"><g id="Layer_1-2-2" data-name="Layer 1-2"><path class="cls-1" d="M30,30Q60,0,102.23,0h52.64V55.6h-52.6a45,45,0,0,0-33,13.66,44.94,44.94,0,0,0-13.66,33V204.55H0V102.27Q0,60.08,30,30"/><path class="cls-1" d="M211.25,174.51q-30-30-30-72.24t30-72.23q30-30,72.24-30t66,12.41q36.22,19.86,36.24,65,0,25.81-24.33,40.22-21.34,12.4-53.12,12.41H280.51V74.47h27.81A61.27,61.27,0,0,0,329.66,71q-3-15.39-46.17-15.4a46.64,46.64,0,0,0-46.67,46.61v.06A46.64,46.64,0,0,0,283.37,149H311.3v55.6H283.49q-42.21,0-72.24-30"/><path class="cls-1" d="M538.68,0h55.61V102.27q0,51.15-35.75,79.45-28.8,22.83-66.53,22.83H414.56V0h55.6V149H492a56.79,56.79,0,0,0,27.31-7.45q19.37-11.93,19.36-39.23V0"/><path class="cls-1" d="M627.55,187.67q-13.41-14.89-13.4-35.74V3h55.61V149H691.6v55.6H666.78q-24.33,0-39.23-16.88"/><path class="cls-1" d="M833.59,0H889.2V102.27q0,51.15-35.75,79.45-28.8,22.83-66.53,22.83H709.47V0h55.6V149h21.85a56.9,56.9,0,0,0,27.31-7.45q19.37-11.93,19.36-39.23V0"/><path class="cls-1" d="M1033.18,204.55V102.27q0-27.3-19.37-39.22a57,57,0,0,0-27.3-7.45H964.66v149H909.05V0h77.46q37.72,0,66.53,22.83,35.74,28.31,35.74,79.44V204.55h-55.6"/></g></g></g></g></svg>